REM DIRINDEX 1\2,1\3,1\4,1\5,1\6
REM DIRNAME folder01,folder02,folder03,folder04,folder05,folder06
TITLE ""
FILE "Disc3Track64.mp3" MP3
  TRACK 01 AUDIO
    TITLE "3:cjc030_06001"
    INDEX 01 00:00:00
  TRACK 02 AUDIO
    TITLE "0:"
    INDEX 01 00:01:24
  TRACK 03 AUDIO
    TITLE "4:cjc030_06002"
    INDEX 01 00:01:32
  TRACK 04 AUDIO
    TITLE "0:"
    INDEX 01 00:03:39
  TRACK 05 AUDIO
    TITLE "5:cjc030_06003"
    INDEX 01 00:03:47
  TRACK 06 AUDIO
    TITLE "0:"
    INDEX 01 00:04:74
  TRACK 07 AUDIO
    TITLE "6:cjc030_06004"
    INDEX 01 00:05:14
  TRACK 08 AUDIO
    TITLE "0:"
    INDEX 01 00:09:14
  TRACK 09 AUDIO
    TITLE "3:cjc030_06005"
    INDEX 01 00:09:63
  TRACK 10 AUDIO
    TITLE "0:"
    INDEX 01 00:11:25
  TRACK 11 AUDIO
    TITLE "4:cjc030_06006"
    INDEX 01 00:11:35
  TRACK 12 AUDIO
    TITLE "0:"
    INDEX 01 00:12:18
  TRACK 13 AUDIO
    TITLE "5:cjc030_06007"
    INDEX 01 00:12:26
  TRACK 14 AUDIO
    TITLE "0:"
    INDEX 01 00:13:61
  TRACK 15 AUDIO
    TITLE "6:cjc030_06008"
    INDEX 01 00:14:00
  TRACK 16 AUDIO
    TITLE "0:"
    INDEX 01 00:16:34
  TRACK 17 AUDIO
    TITLE "3:cjc030_06009"
    INDEX 01 00:17:08
  TRACK 18 AUDIO
    TITLE "0:"
    INDEX 01 00:18:44
  TRACK 19 AUDIO
    TITLE "4:cjc030_06010"
    INDEX 01 00:18:54
  TRACK 20 AUDIO
    TITLE "0:"
    INDEX 01 00:20:02
  TRACK 21 AUDIO
    TITLE "5:cjc030_06011"
    INDEX 01 00:20:08
  TRACK 22 AUDIO
    TITLE "0:"
    INDEX 01 00:21:47
  TRACK 23 AUDIO
    TITLE "3:cjc030_06012"
    INDEX 01 00:22:29
  TRACK 24 AUDIO
    TITLE "0:"
    INDEX 01 00:23:73
  TRACK 25 AUDIO
    TITLE "4:cjc030_06013"
    INDEX 01 00:24:08
  TRACK 26 AUDIO
    TITLE "0:"
    INDEX 01 00:25:37
  TRACK 27 AUDIO
    TITLE "5:cjc030_06014"
    INDEX 01 00:25:46
  TRACK 28 AUDIO
    TITLE "0:"
    INDEX 01 00:27:14
  TRACK 29 AUDIO
    TITLE "6:cjc030_06015"
    INDEX 01 00:27:30
  TRACK 30 AUDIO
    TITLE "0:"
    INDEX 01 00:30:54
  TRACK 31 AUDIO
    TITLE "3:cjc030_06016"
    INDEX 01 00:31:26
  TRACK 32 AUDIO
    TITLE "0:"
    INDEX 01 00:32:60
  TRACK 33 AUDIO
    TITLE "4:cjc030_06017"
    INDEX 01 00:32:64
  TRACK 34 AUDIO
    TITLE "0:"
    INDEX 01 00:35:21
  TRACK 35 AUDIO
    TITLE "5:cjc030_06018"
    INDEX 01 00:35:29
  TRACK 36 AUDIO
    TITLE "0:"
    INDEX 01 00:36:62
  TRACK 37 AUDIO
    TITLE "6:cjc030_06019"
    INDEX 01 00:36:74
  TRACK 38 AUDIO
    TITLE "0:"
    INDEX 01 00:38:71
  TRACK 39 AUDIO
    TITLE "3:cjc030_06020"
    INDEX 01 00:39:47
  TRACK 40 AUDIO
    TITLE "0:"
    INDEX 01 00:40:62
  TRACK 41 AUDIO
    TITLE "4:cjc030_06021"
    INDEX 01 00:40:68
  TRACK 42 AUDIO
    TITLE "0:"
    INDEX 01 00:43:13
  TRACK 43 AUDIO
    TITLE "5:cjc030_06022"
    INDEX 01 00:43:19
  TRACK 44 AUDIO
    TITLE "0:"
    INDEX 01 00:44:38
  TRACK 45 AUDIO
    TITLE "6:cjc030_06023"
    INDEX 01 00:44:50
  TRACK 46 AUDIO
    TITLE "0:"
    INDEX 01 00:49:27
  TRACK 47 AUDIO
    TITLE "3:cjc030_06024"
    INDEX 01 00:49:74
  TRACK 48 AUDIO
    TITLE "0:"
    INDEX 01 00:51:32
  TRACK 49 AUDIO
    TITLE "4:cjc030_06025"
    INDEX 01 00:51:40
  TRACK 50 AUDIO
    TITLE "0:"
    INDEX 01 00:52:34
  TRACK 51 AUDIO
    TITLE "5:cjc030_06026"
    INDEX 01 00:52:43
  TRACK 52 AUDIO
    TITLE "0:"
    INDEX 01 00:53:74
  TRACK 53 AUDIO
    TITLE "6:cjc030_06027"
    INDEX 01 00:54:13
  TRACK 54 AUDIO
    TITLE "0:"
    INDEX 01 00:56:35
  TRACK 55 AUDIO
    TITLE "3:cjc030_06028"
    INDEX 01 00:57:09
  TRACK 56 AUDIO
    TITLE "0:"
    INDEX 01 00:58:34
  TRACK 57 AUDIO
    TITLE "4:cjc030_06029"
    INDEX 01 00:58:40
  TRACK 58 AUDIO
    TITLE "0:"
    INDEX 01 00:59:69
  TRACK 59 AUDIO
    TITLE "5:cjc030_06030"
    INDEX 01 01:00:02
  TRACK 60 AUDIO
    TITLE "0:"
    INDEX 01 01:01:25
  TRACK 61 AUDIO
    TITLE "6:cjc030_06031"
    INDEX 01 01:01:40
  TRACK 62 AUDIO
    TITLE "0:"
    INDEX 01 01:04:23
  TRACK 63 AUDIO
    TITLE "3:cjc030_06032"
    INDEX 01 01:04:70
  TRACK 64 AUDIO
    TITLE "0:"
    INDEX 01 01:06:36
  TRACK 65 AUDIO
    TITLE "4:cjc030_06033"
    INDEX 01 01:06:45
  TRACK 66 AUDIO
    TITLE "0:"
    INDEX 01 01:08:25
  TRACK 67 AUDIO
    TITLE "5:cjc030_06034"
    INDEX 01 01:08:31
  TRACK 68 AUDIO
    TITLE "0:"
    INDEX 01 01:09:71
  TRACK 69 AUDIO
    TITLE "3:cjc030_06035"
    INDEX 01 01:10:53
  TRACK 70 AUDIO
    TITLE "0:"
    INDEX 01 01:12:05
  TRACK 71 AUDIO
    TITLE "4:cjc030_06036"
    INDEX 01 01:12:13
  TRACK 72 AUDIO
    TITLE "0:"
    INDEX 01 01:13:42
  TRACK 73 AUDIO
    TITLE "5:cjc030_06037"
    INDEX 01 01:13:49
  TRACK 74 AUDIO
    TITLE "0:"
    INDEX 01 01:15:05
  TRACK 75 AUDIO
    TITLE "6:cjc030_06038"
    INDEX 01 01:15:15
  TRACK 76 AUDIO
    TITLE "0:"
    INDEX 01 01:19:70
  TRACK 77 AUDIO
    TITLE "3:cjc030_06039"
    INDEX 01 01:20:44
  TRACK 78 AUDIO
    TITLE "0:"
    INDEX 01 01:21:72
  TRACK 79 AUDIO
    TITLE "4:cjc030_06040"
    INDEX 01 01:22:05
  TRACK 80 AUDIO
    TITLE "0:"
    INDEX 01 01:24:73
  TRACK 81 AUDIO
    TITLE "5:cjc030_06041"
    INDEX 01 01:25:04
  TRACK 82 AUDIO
    TITLE "0:"
    INDEX 01 01:26:34
  TRACK 83 AUDIO
    TITLE "3:cjc030_06042"
    INDEX 01 01:27:14
  TRACK 84 AUDIO
    TITLE "0:"
    INDEX 01 01:28:57
  TRACK 85 AUDIO
    TITLE "4:cjc030_06043"
    INDEX 01 01:28:65
  TRACK 86 AUDIO
    TITLE "0:"
    INDEX 01 01:30:56
  TRACK 87 AUDIO
    TITLE "5:cjc030_06044"
    INDEX 01 01:30:62
  TRACK 88 AUDIO
    TITLE "0:"
    INDEX 01 01:32:31
  TRACK 89 AUDIO
    TITLE "6:cjc030_06045"
    INDEX 01 01:32:45
  TRACK 90 AUDIO
    TITLE "0:"
    INDEX 01 01:37:11
  TRACK 91 AUDIO
    TITLE "3:cjc030_06046"
    INDEX 01 01:37:62
  TRACK 92 AUDIO
    TITLE "0:"
    INDEX 01 01:39:06
  TRACK 93 AUDIO
    TITLE "4:cjc030_06047"
    INDEX 01 01:39:15
  TRACK 94 AUDIO
    TITLE "0:"
    INDEX 01 01:41:42
  TRACK 95 AUDIO
    TITLE "5:cjc030_06048"
    INDEX 01 01:41:50
  TRACK 96 AUDIO
    TITLE "0:"
    INDEX 01 01:42:71
  TRACK 97 AUDIO
    TITLE "3:cjc030_06049"
    INDEX 01 01:43:52
  TRACK 98 AUDIO
    TITLE "0:"
    INDEX 01 01:45:06
  TRACK 99 AUDIO
    TITLE "4:cjc030_06050"
    INDEX 01 01:45:16
  TRACK 100 AUDIO
    TITLE "0:"
    INDEX 01 01:47:17
  TRACK 101 AUDIO
    TITLE "5:cjc030_06051"
    INDEX 01 01:47:23
  TRACK 102 AUDIO
    TITLE "0:"
    INDEX 01 01:48:58
  TRACK 103 AUDIO
    TITLE "6:cjc030_06052"
    INDEX 01 01:48:69
  TRACK 104 AUDIO
    TITLE "0:"
    INDEX 01 01:53:21
